<svg xmlns="http://www.w3.org/2000/svg" viewBox="0 0 320.75 320.73"><defs><style>.cls-1{font-size:42px;fill:#fff;font-family:HelveticaNowDisplay-ExtLt, Helvetica Now Display;}</style></defs><g id="Layer_2" data-name="Layer 2"><g id="Layer_9" data-name="Layer 9"><text class="cls-1" transform="translate(259.49 131.09) rotate(80.8)">V</text><text class="cls-1" transform="translate(262.94 160.19) rotate(91.87)">i</text><text class="cls-1" transform="translate(262.97 171.18) rotate(102.54)">d</text><text class="cls-1" transform="matrix(-0.46, 0.89, -0.89, -0.46, 256.51, 197.69)">e</text><text class="cls-1" transform="translate(244.15 220.56) rotate(132.13)">o</text><text class="cls-1" transform="translate(225.98 239.96) rotate(146.95)">g</text><text class="cls-1" transform="translate(202.77 253.96) rotate(159.55)">r</text><text class="cls-1" transform="translate(187.38 259.84) rotate(170.71)">a</text><text class="cls-1" transform="translate(162.39 263.54) rotate(-174.49)">p</text><text class="cls-1" transform="matrix(-0.94, -0.34, 0.34, -0.94, 135.28, 260.35)">h</text><text class="cls-1" transform="translate(112.24 251.44) rotate(-146.55)">y</text><text class="cls-1" transform="translate(92.59 237.41) rotate(-135.98)"> </text><text class="cls-1" transform="matrix(-0.56, -0.83, 0.83, -0.56, 82.58, 228.41)">&amp;</text><text class="cls-1" transform="translate(66.77 202.4) rotate(-111.61)"> </text><text class="cls-1" transform="translate(61.41 190.02) rotate(-99.59)">P</text><text class="cls-1" transform="translate(57.29 161.79) rotate(-84.62)">h</text><text class="cls-1" transform="translate(60.09 136.29) rotate(-70.2)">o</text><text class="cls-1" transform="translate(69.53 112.45) rotate(-58.74)">t</text><text class="cls-1" transform="translate(77.52 98.91) rotate(-47.01)">o</text><text class="cls-1" transform="matrix(0.85, -0.53, 0.53, 0.85, 95.98, 79.78)">g</text><text class="cls-1" transform="translate(119.41 66.13) rotate(-19.57)">r</text><text class="cls-1" transform="translate(134.9 60.49) rotate(-8.41)">a</text><text class="cls-1" transform="translate(159.93 57.18) rotate(6.37)">p</text><text class="cls-1" transform="matrix(0.93, 0.36, -0.36, 0.93, 186.99, 60.77)">h</text><text class="cls-1" transform="translate(209.89 70.03) rotate(34.33)">y</text><text class="cls-1" transform="translate(229.31 84.35) rotate(44.88)"> </text><text class="cls-1" transform="matrix(0.54, 0.84, -0.84, 0.54, 239.19, 93.51)">&amp;</text></g></g></svg>