<svg xmlns="http://www.w3.org/2000/svg" viewBox="0 0 928.24 392.89"><defs><style>.cls-1{fill:#fff;}</style></defs><g id="Layer_2" data-name="Layer 2"><g id="Layer_4" data-name="Layer 4"><path class="cls-1" d="M924.39,64.52V317.61a4.3,4.3,0,0,1-4.28,4.29H818a248.75,248.75,0,0,1-41.27-3.51,118.62,118.62,0,0,1-38-13,79.8,79.8,0,0,1-28-25.88q-11-16.49-11-42.07V129.11a4.27,4.27,0,0,1,4.28-4.28H737.7a4.27,4.27,0,0,1,4.28,4.28V237.48c0,15.39,1.69,28,5.2,37.83s8.49,17.62,15,23.25a55,55,0,0,0,23.95,11.69A142.2,142.2,0,0,0,818,313.49h59.89a4.3,4.3,0,0,0,4.28-4.28V102.66L466.63,105V317.61a4.3,4.3,0,0,1-4.28,4.29H428.68a4.3,4.3,0,0,1-4.28-4.29V236.13a4.27,4.27,0,0,0-4.28-4.28H299.18a4.27,4.27,0,0,0-4.28,4.28v81.48a4.29,4.29,0,0,1-4.28,4.29H257a4.29,4.29,0,0,1-4.28-4.29V129.11a4.27,4.27,0,0,1,4.28-4.28h33.66a4.27,4.27,0,0,1,4.28,4.28v90a4.29,4.29,0,0,0,4.28,4.28H420.12a4.29,4.29,0,0,0,4.28-4.28V67a4.29,4.29,0,0,1,4.28-4.28h33.67l423.47-2.39v0a4.36,4.36,0,0,1,.62,0h33.67A4.26,4.26,0,0,1,924.39,64.52Z"/><path class="cls-1" d="M222.29,243.11q7.58,10.13,7.59,25.87,0,17.47-10.14,28.74t-26.3,17.85a145.63,145.63,0,0,1-36.75,9.29A322.66,322.66,0,0,1,115,327.53,215.05,215.05,0,0,1,83.34,325a191.16,191.16,0,0,1-33.47-8.18A143.41,143.41,0,0,1,19,302.07,80.08,80.08,0,0,1,1,286.65a4.26,4.26,0,0,1,3.31-7H30.89a4.31,4.31,0,0,1,3.71,2.23,56.35,56.35,0,0,0,11.87,14.39,81.61,81.61,0,0,0,18.86,12.38,101.36,101.36,0,0,0,23.22,7.75,128.75,128.75,0,0,0,26.49,2.7q19.15-.58,32.09-4.24c8.63-2.43,15.5-5.94,20.67-10.57a38.8,38.8,0,0,0,11.14-17.16,77.77,77.77,0,0,0,3.36-24.07q0-13.24-7.45-22a55.42,55.42,0,0,0-19.7-14.19,140.28,140.28,0,0,0-28-8.87c-10.53-2.27-21.21-4.24-32.12-5.94s-21.56-3.47-32.09-5.32a179.26,179.26,0,0,1-28-7.17c-8.17-2.93-14.77-6.71-19.86-11.42a23.49,23.49,0,0,1-7.59-18A30.88,30.88,0,0,1,13,152a50.45,50.45,0,0,1,14.5-13.38A94.43,94.43,0,0,1,48,129.23a185.79,185.79,0,0,1,23.37-6.06,212.85,212.85,0,0,1,22.79-3.12c7.32-.54,13.8-.85,19.43-.85A190.93,190.93,0,0,1,144,121.75a156,156,0,0,1,30.54,8.17,127.85,127.85,0,0,1,27.85,14.77,85,85,0,0,1,16.85,15.47,4.22,4.22,0,0,1-3.32,6.9H189.32a4.27,4.27,0,0,1-3.71-2.2,70.37,70.37,0,0,0-26.53-26.92q-17.88-10.29-45.47-10.29a186.51,186.51,0,0,0-20.55,1.15,60.63,60.63,0,0,0-18.7,4.9,34.74,34.74,0,0,0-13.66,11c-3.58,4.78-5.43,11.22-5.63,19.28-.19,7.91,2.2,14.31,7.18,19.29s11.53,9.06,19.7,12.26a150.09,150.09,0,0,0,28,7.6c10.53,1.89,21.21,3.78,32.09,5.78s21.63,4.24,32.24,6.87a121.56,121.56,0,0,1,28.15,10.56A59.38,59.38,0,0,1,222.29,243.11Z"/><path class="cls-1" d="M674.37,129.11V317.65a4.26,4.26,0,0,1-4.28,4.25H636.43a4.24,4.24,0,0,1-4.28-4.25V236.13a4.3,4.3,0,0,0-4.28-4.28h-74a4.28,4.28,0,0,0-3.47,1.81l-60.81,86.42a4.21,4.21,0,0,1-3.48,1.82,4.26,4.26,0,0,1-3.5-6.72L614.83,126.64a4.31,4.31,0,0,1,3.47-1.81h0a4.27,4.27,0,0,1,3.47,6.71l-59.54,85.11a4.25,4.25,0,0,0,3.47,6.71h62.13a4.26,4.26,0,0,0,4.28-4.24v-90a4.27,4.27,0,0,1,4.28-4.28h33.66A4.29,4.29,0,0,1,674.37,129.11Z"/><path class="cls-1" d="M817,38.29V3.05a3.07,3.07,0,0,1,3-3h57.54a3.09,3.09,0,0,1,3.09,3.05V38.29a3.09,3.09,0,0,1-3.09,3.05H820A3.07,3.07,0,0,1,817,38.29Z"/><path class="cls-1" d="M451.71,343.61a48.41,48.41,0,0,0-5.07.27A14.94,14.94,0,0,0,442,345.1a8.48,8.48,0,0,0-3.36,2.71,8.09,8.09,0,0,0-1.39,4.75,6.21,6.21,0,0,0,1.77,4.76,14,14,0,0,0,4.86,3,36.88,36.88,0,0,0,6.91,1.87l7.91,1.42q4,.74,7.95,1.7a29.65,29.65,0,0,1,6.94,2.61,14.68,14.68,0,0,1,4.89,4.13,10.33,10.33,0,0,1,1.88,6.38,10.21,10.21,0,0,1-2.5,7.08,17.52,17.52,0,0,1-6.49,4.41,36.4,36.4,0,0,1-9.06,2.29,79.55,79.55,0,0,1-10.27.66,54.26,54.26,0,0,1-7.82-.62,46.42,46.42,0,0,1-8.25-2,35.31,35.31,0,0,1-7.61-3.64,19.62,19.62,0,0,1-5.76-5.52h9.3a14,14,0,0,0,3.23,4.09,20.14,20.14,0,0,0,4.65,3.06,25.54,25.54,0,0,0,5.73,1.91,31.44,31.44,0,0,0,6.53.66,33.16,33.16,0,0,0,7.91-1,12.84,12.84,0,0,0,5.1-2.61,9.49,9.49,0,0,0,2.74-4.23,18.93,18.93,0,0,0,.83-5.94,8,8,0,0,0-1.84-5.41,13.65,13.65,0,0,0-4.85-3.51,34.66,34.66,0,0,0-6.91-2.18c-2.59-.56-5.23-1-7.91-1.46s-5.33-.86-7.92-1.32a42.67,42.67,0,0,1-6.9-1.77,13.85,13.85,0,0,1-4.9-2.81,5.77,5.77,0,0,1-1.87-4.44,7.54,7.54,0,0,1,1.35-4.48,12.36,12.36,0,0,1,3.57-3.3,23.43,23.43,0,0,1,5.07-2.32,43.27,43.27,0,0,1,5.77-1.49,51,51,0,0,1,5.62-.77c1.8-.14,3.4-.21,4.79-.21a46.83,46.83,0,0,1,7.49.63,37.44,37.44,0,0,1,7.54,2,31.93,31.93,0,0,1,6.87,3.65,21.47,21.47,0,0,1,5.45,5.51h-9.3a17.49,17.49,0,0,0-6.84-7.18A22.28,22.28,0,0,0,451.71,343.61Z"/><path class="cls-1" d="M547.16,391.5h-7.37a1.52,1.52,0,0,1-1.52-1.52V345H515.85v-2.08h55V345H548.68v45A1.52,1.52,0,0,1,547.16,391.5Z"/><path class="cls-1" d="M641.69,391.5a61.07,61.07,0,0,1-10.16-.87,28.83,28.83,0,0,1-9.37-3.19,19.56,19.56,0,0,1-6.91-6.38,18.4,18.4,0,0,1-2.71-10.38V344.43a1.52,1.52,0,0,1,1.52-1.52h7.37a1.52,1.52,0,0,1,1.52,1.52v26.25a28.41,28.41,0,0,0,1.29,9.33,13,13,0,0,0,3.71,5.73,13.55,13.55,0,0,0,5.9,2.88,35.28,35.28,0,0,0,7.84.8h15.83v-45a1.52,1.52,0,0,1,1.53-1.52h7.36a1.53,1.53,0,0,1,1.53,1.52V391.5Z"/><path class="cls-1" d="M713.05,342.91h24.3a35.94,35.94,0,0,1,10,1.42,27.08,27.08,0,0,1,8.92,4.41,22.94,22.94,0,0,1,6.42,7.54,22.48,22.48,0,0,1,2.46,10.86,22.14,22.14,0,0,1-8.88,18.53,27.08,27.08,0,0,1-8.92,4.41,35.94,35.94,0,0,1-10,1.42h-24.3Zm20.83,46.51a23.83,23.83,0,0,0,8.15-1.36,18,18,0,0,0,6.6-4.09,19.42,19.42,0,0,0,4.44-6.91,26.89,26.89,0,0,0,1.63-9.85,25.82,25.82,0,0,0-1.63-9.55,20.29,20.29,0,0,0-4.44-6.94,18.79,18.79,0,0,0-6.6-4.27,22.51,22.51,0,0,0-8.15-1.46H723.47v44.43Z"/><path class="cls-1" d="M811.69,342.91h7.36a1.53,1.53,0,0,1,1.53,1.52V390a1.53,1.53,0,0,1-1.53,1.52h-7.36a1.53,1.53,0,0,1-1.53-1.52V344.43A1.53,1.53,0,0,1,811.69,342.91Z"/><path class="cls-1" d="M865.7,367.28a26.73,26.73,0,0,1,1.39-9,21.71,21.71,0,0,1,3.75-6.77,22.26,22.26,0,0,1,5.49-4.76,33.36,33.36,0,0,1,6.6-3.09A37.82,37.82,0,0,1,890,342a49.53,49.53,0,0,1,13.9,0,39.38,39.38,0,0,1,7.09,1.63,31,31,0,0,1,6.6,3.09,22.59,22.59,0,0,1,5.49,4.79,22.34,22.34,0,0,1,3.75,6.7,26.15,26.15,0,0,1,1.39,8.92,26.77,26.77,0,0,1-1.39,9,21.53,21.53,0,0,1-9.24,11.52,33.63,33.63,0,0,1-6.6,3.09,37.05,37.05,0,0,1-7.09,1.66,49.53,49.53,0,0,1-13.9,0,38.54,38.54,0,0,1-7.09-1.63,30.29,30.29,0,0,1-6.6-3.09,22.59,22.59,0,0,1-5.49-4.79,21.8,21.8,0,0,1-3.75-6.7A26.09,26.09,0,0,1,865.7,367.28Zm10.41-.07q-.08,11.39,5,17.45T897,390.81a24.63,24.63,0,0,0,9.36-1.63,16.16,16.16,0,0,0,6.47-4.72,20.39,20.39,0,0,0,3.78-7.5,36.08,36.08,0,0,0,1.25-9.82,35.43,35.43,0,0,0-1.25-9.76A20.42,20.42,0,0,0,912.8,350a16.16,16.16,0,0,0-6.47-4.72,24.44,24.44,0,0,0-9.36-1.63,25.15,25.15,0,0,0-9.32,1.56,16.15,16.15,0,0,0-6.48,4.58,19.49,19.49,0,0,0-3.81,7.39A36.5,36.5,0,0,0,876.11,367.21Z"/></g></g></svg>