<svg xmlns="http://www.w3.org/2000/svg" viewBox="0 0 389.72 391.2"><defs><style>.cls-1{fill:#fff;stroke:#fff;stroke-miterlimit:10;}</style></defs><g id="Layer_2" data-name="Layer 2"><g id="Layer_9" data-name="Layer 9"><path class="cls-1" d="M150.5,389.34v1.36H.5v-150H.66A148.74,148.74,0,0,0,149.4,389.35Z"/><path class="cls-1" d="M389.22.5v150h-.81c0-.43,0-.87,0-1.3A137.78,137.78,0,0,0,375.9,91.76c-16.52-36.23-48.2-65.24-87.79-80.34A173.56,173.56,0,0,0,239.22.5Z"/><path class="cls-1" d="M388.65,276.06l.57,114.64-115.88-.85h0A114.69,114.69,0,0,1,159.07,276.06h69.59A44.71,44.71,0,0,0,278,320.5h40V276.06c0-24.68-20-45.19-44.68-45.19h0l-158.12-1.05h-.84a112.49,112.49,0,0,1-43.68-8.77A114.88,114.88,0,0,1,.62,115.48H.5V.5H122.33c43.82,3.05,80.82,31.15,97,70.2A115.37,115.37,0,0,1,228.15,115c0,.15,0,.31,0,.46H159.9A44.68,44.68,0,0,0,115.22,70.8v-.1H70.7v41c-.11,1.25-.16,2.51-.16,3.78s0,2.53.16,3.78c1.92,22.91,21.11,41.41,44.52,41.41H283.59a113.74,113.74,0,0,1,34.43,8.4,114.72,114.72,0,0,1,70.64,106c0,.33,0,.67,0,1Z"/></g></g></svg>